# OBJ generated by ONSHAPE BY PTC INC, 1.215 Units = meters
mtllib vex_visual_high_res.mtl
g 276-7596-350_276-7596-311
usemtl 0.000000_0.000000_0.000000_0.000000_0.000000
o mesh0
v 6.3515e-15 -0.0269592 1.8086 
p 1 
g Part 1
v -1.783 0 -1.783 
v -1.783 -0.30883 -1.783 
v 1.783 -0.30883 -1.783 
v 1.783 0 -1.783 
v 1.783 -0.30883 1.783 
v 1.783 0 1.783 
v -1.783 -0.30883 1.783 
v -1.783 0 1.783 
v 1.8338 0 -1.8338 
v -1.8338 0 -1.8338 
v -1.8338 0 1.8338 
v 1.8338 0 1.8338 
v -1.8338 -0.30883 -1.8338 
v 1.8338 -0.30883 -1.8338 
v 1.8338 -0.30883 1.8338 
v -1.8338 -0.30883 1.8338 
vn 0 0 1 
vn -1 0 -6.22671e-17 
vn 0 0 -1 
vn 1 0 6.22671e-17 
vn 0 1 0 
vn 0 -1 0 
vn 0 0 1 
vn 1 0 6.05422e-17 
vn 0 0 -1 
vn -1 0 -6.05422e-17 
usemtl 0.917647_0.917647_0.917647_0.000000_0.000000
o mesh1
f 2//1 3//1 4//1 
f 4//1 5//1 2//1 
o mesh2
f 5//2 4//2 6//2 
f 6//2 7//2 5//2 
o mesh3
f 7//3 6//3 8//3 
f 8//3 9//3 7//3 
o mesh4
f 9//4 8//4 3//4 
f 3//4 2//4 9//4 
o mesh5
f 10//5 11//5 2//5 
f 11//5 12//5 9//5 
f 9//5 2//5 11//5 
f 12//5 13//5 7//5 
f 13//5 10//5 5//5 
f 7//5 9//5 12//5 
f 2//5 5//5 10//5 
f 5//5 7//5 13//5 
o mesh6
f 14//6 15//6 4//6 
f 15//6 16//6 6//6 
f 6//6 4//6 15//6 
f 16//6 17//6 8//6 
f 8//6 6//6 16//6 
f 17//6 14//6 3//6 
f 3//6 8//6 17//6 
f 4//6 3//6 14//6 
o mesh7
f 12//7 17//7 16//7 
f 16//7 13//7 12//7 
o mesh8
f 13//8 16//8 15//8 
f 15//8 10//8 13//8 
o mesh9
f 10//9 15//9 14//9 
f 14//9 11//9 10//9 
o mesh10
f 11//10 14//10 17//10 
f 17//10 12//10 11//10 
g 276-7596-350_276-7596-307
usemtl 0.000000_0.000000_0.000000_0.000000_0.000000
o mesh11
v -1.8086 -0.0269592 -1.18779 
p 18 
g 276-7596-350_276-7596-301
o mesh12
v 1.8086 -0.0269592 1.18779 
p 19 
g 276-7596-350_276-7596-312
o mesh13
v 1.18779 -0.0269592 1.8086 
p 20 
g 276-7596-350_276-7596-305
o mesh14
v -1.89809e-14 -0.0269592 -1.8086 
p 21 
g 276-7596-350_276-7596-310
o mesh15
v -1.18779 -0.0269592 1.8086 
p 22 
g 276-7596-350_276-7596-308
o mesh16
v -1.8086 -0.0269592 3.68186e-17 
p 23 
g 276-7596-350_276-7596-309
o mesh17
v -1.8086 -0.0269592 1.18779 
p 24 
g 276-7596-350_276-7596-306
o mesh18
v -1.18779 -0.0269592 -1.8086 
p 25 
g 276-7596-350_276-7596-303
o mesh19
v 1.8086 -0.0269592 -1.18779 
p 26 
g 276-7596-350_276-7596-302
o mesh20
v 1.8086 -0.0269592 -1.26662e-14 
p 27 
g 276-7596-350_276-7596-304
o mesh21
v 1.18779 -0.0269592 -1.8086 
p 28 
